<?xml version="1.0" standalone="no"?>
<!DOCTYPE svg PUBLIC "-//W3C//DTD SVG 20010904//EN"
 "http://www.w3.org/TR/2001/REC-SVG-20010904/DTD/svg10.dtd">
<svg version="1.0" xmlns="http://www.w3.org/2000/svg"
 width="444.000000pt" height="727.000000pt" viewBox="0 0 444.000000 727.000000"
 preserveAspectRatio="xMidYMid meet">

<g transform="translate(0.000000,727.000000) scale(0.100000,-0.100000)"
fill="#000000" stroke="none">
<path d="M0 6073 c1 -943 3 -1195 13 -1183 28 35 1992 2327 2015 2353 l26 27
-1027 0 -1027 0 0 -1197z"/>
<path d="M2080 7265 c0 -12 54 -112 83 -155 17 -25 56 -76 87 -115 74 -91 90
-124 90 -182 -1 -64 -20 -113 -68 -176 -78 -100 -78 -141 0 -269 28 -46 57
-103 64 -127 26 -84 12 -287 -21 -320 -13 -13 -20 -12 -61 7 -25 13 -54 20
-63 17 -26 -8 -141 -251 -141 -298 0 -34 4 -40 35 -53 21 -9 69 -14 127 -14
164 -1 278 -25 278 -60 0 -24 -47 -64 -116 -98 -129 -65 -203 -144 -381 -408
-120 -179 -142 -220 -150 -284 -13 -115 20 -133 123 -68 38 25 94 56 124 71
41 20 66 42 100 87 53 72 83 78 88 20 2 -28 -11 -59 -68 -155 -72 -124 -87
-175 -51 -175 11 0 57 14 103 31 45 17 102 37 125 45 45 16 73 47 136 146 20
31 48 65 62 74 25 16 28 16 68 -3 58 -28 126 -91 172 -157 61 -90 48 -127 -63
-178 -53 -24 -63 -32 -60 -51 5 -38 76 -74 201 -101 40 -9 52 -42 38 -105 -16
-76 -14 -120 10 -157 32 -53 125 -130 203 -168 137 -68 448 -156 549 -156 20
0 69 7 109 16 43 10 123 17 193 18 109 1 125 -1 170 -24 59 -29 189 -154 234
-224 l31 -50 0 1902 0 1902 -1180 0 c-649 0 -1180 -2 -1180 -5z"/>
<path d="M0 2437 l0 -2437 802 0 801 0 -69 49 c-78 54 -120 98 -160 166 -24
42 -26 52 -19 103 13 93 8 133 -25 217 -25 60 -31 89 -27 121 2 24 38 114 82
206 138 292 150 351 141 673 -8 315 -33 443 -97 508 -36 37 -38 42 -26 61 15
22 61 49 144 83 76 31 89 56 74 146 -13 84 -66 199 -110 241 -28 27 -37 29
-108 31 -93 1 -175 34 -236 93 -51 49 -74 96 -93 190 -40 192 -168 379 -460
670 -96 95 -181 187 -190 205 -12 21 -20 75 -26 162 -15 215 -26 256 -129 459
-87 171 -226 427 -255 471 -12 16 -14 -367 -14 -2418z"/>
<path d="M4347 3373 c-79 -39 -90 -47 -106 -87 -25 -57 -66 -94 -182 -163 -54
-32 -104 -69 -113 -84 -28 -47 -16 -247 23 -394 24 -89 38 -324 22 -381 -6
-23 -18 -45 -27 -48 -27 -11 -80 -6 -125 10 -47 16 -44 17 -494 -32 -300 -32
-440 -82 -566 -201 -142 -134 -256 -316 -301 -480 -20 -71 -22 -100 -20 -318
3 -386 19 -499 76 -535 14 -9 54 -14 121 -15 108 -1 155 -16 202 -67 87 -93
82 -292 -9 -347 -18 -12 -60 -20 -116 -24 -96 -7 -235 -34 -378 -73 -105 -28
-113 -27 -194 21 -197 118 -361 176 -449 159 -40 -8 -48 -14 -65 -48 -18 -37
-19 -48 -8 -131 6 -50 9 -100 6 -113 l-6 -22 1401 0 1401 0 0 1710 c0 941 -1
1709 -2 1708 -2 0 -43 -21 -91 -45z"/>
</g>
</svg>
